# xmcd CD database file
#
# Track frame offsets:
#	150
#	25967
#	50410
#	74648
#	96812
#	122360
#	143499
#	167203
#	200201
#	229357
#	250584
#	269597
#
# Disc length: 4054 seconds
#
# Revision: 1
# Processed by: cddbd v1.4PL0 Copyright (c) Steve Scherf et al.
# Submitted via: CDex 1.40Beta9
#
DISCID=b00fd40c
DTITLE=Karu Manta - White Buffalo Spirits
DYEAR=2003
DGENRE=Native American
TTITLE0=Medicine Power Song
TTITLE1=Ly Olay Ale Loya
TTITLE2=Axtu Leman Sumix Sacred Mountain
TTITLE3=Raindance
TTITLE4=White Buffalo
TTITLE5=Dawa
TTITLE6=Flight of Eagle
TTITLE7=Shaman Call
TTITLE8=Medicine Power
TTITLE9=Four Circles
TTITLE10=Yeha Noha
TTITLE11=Tor Cheney Nahana
EXTD=YEAR: 2003 ID3G: 64
EXTT0=
EXTT1=
EXTT2=
EXTT3=
EXTT4=
EXTT5=
EXTT6=
EXTT7=
EXTT8=
EXTT9=
EXTT10=
EXTT11=
PLAYORDER=
